<svg width="1158" height="1086" xmlns="http://www.w3.org/2000/svg" xmlns:xlink="http://www.w3.org/1999/xlink" xml:space="preserve" overflow="hidden"><g transform="translate(-300 -855)"><path d="M1151.79 1584 1212 1645.82 1212 1646 1165.6 1646C1157.54 1646 1151 1639.42 1151 1631.31L1151 1584Z" stroke="#5F968E" stroke-width="13.75" stroke-linejoin="round" stroke-miterlimit="10" fill="#E05858" fill-rule="evenodd"/><path d="M985 1596.95C985 1588.74 991.604 1582.08 999.75 1582.08L1151.17 1582 1212 1644.57 1211.96 1852.13C1211.96 1860.34 1205.36 1867 1197.21 1867L999.75 1867C991.604 1867 985 1860.34 985 1852.13L985 1596.95Z" stroke="#5F968E" stroke-width="13.75" stroke-linejoin="round" stroke-miterlimit="10" fill="#E05858" fill-rule="evenodd"/><path d="M923 1647.9C923 1639.71 929.633 1633.08 937.815 1633.08L1089.9 1633 1151 1695.35 1150.96 1902.18C1150.96 1910.37 1144.33 1917 1136.15 1917L937.815 1917C929.633 1917 923 1910.37 923 1902.18L923 1647.9Z" stroke="#5F968E" stroke-width="13.75" stroke-linejoin="round" stroke-miterlimit="10" fill="#E05858" fill-rule="evenodd"/><path d="M965 1686 1039.89 1686" stroke="#5F968E" stroke-width="13.75" stroke-linecap="round" stroke-miterlimit="8" fill="#E05858" fill-rule="evenodd"/><path d="M965 1743 1112.5 1743" stroke="#5F968E" stroke-width="13.75" stroke-linecap="round" stroke-miterlimit="8" fill="#E05858" fill-rule="evenodd"/><path d="M965 1858 1089.21 1858" stroke="#5F968E" stroke-width="13.75" stroke-linecap="round" stroke-miterlimit="8" fill="#E05858" fill-rule="evenodd"/><path d="M1089.8 1634 1151 1696.82 1151 1697 1103.84 1697C1095.64 1697 1089 1690.32 1089 1682.07L1089 1634Z" stroke="#5F968E" stroke-width="13.75" stroke-linejoin="round" stroke-miterlimit="10" fill="#E05858" fill-rule="evenodd"/><path d="M964 1802 1111.5 1802" stroke="#5F968E" stroke-width="13.75" stroke-linecap="round" stroke-miterlimit="8" fill="#E05858" fill-rule="evenodd"/><path d="M866.762 1874.69C673.006 1878.06 513.206 1723.72 509.839 1529.96 506.472 1336.21 660.813 1176.41 854.569 1173.04 1048.33 1169.67 1208.13 1324.01 1211.49 1517.77 1211.65 1526.57 1211.47 1535.37 1210.96 1544.15" stroke="#5F968E" stroke-width="27.5" stroke-linecap="round" stroke-miterlimit="8" fill="none" fill-rule="evenodd"/><path d="M0 0 70.0452 77.41" stroke="#5F968E" stroke-width="27.5" stroke-linecap="round" stroke-miterlimit="8" fill="none" fill-rule="evenodd" transform="matrix(1 0 0 -1 1205 1561.41)"/><path d="M0 0 70.0452 77.41" stroke="#5F968E" stroke-width="27.5" stroke-linecap="round" stroke-miterlimit="8" fill="none" fill-rule="evenodd" transform="matrix(-1.83697e-16 -1 -1 1.83697e-16 1204.41 1561.05)"/><rect x="302.5" y="1120.5" width="163" height="72.9999" stroke="#5F968E" stroke-width="4.58333" stroke-miterlimit="8" fill="#E05858"/><path d="M465 1157 594.22 1157" stroke="#5F968E" stroke-width="13.75" stroke-miterlimit="8" fill="none" fill-rule="evenodd"/><path d="M593 1155 761.171 1407.3" stroke="#5F968E" stroke-width="13.75" stroke-miterlimit="8" fill="none" fill-rule="evenodd"/><rect x="422.5" y="1865.5" width="163" height="72.9999" stroke="#5F968E" stroke-width="4.58333" stroke-miterlimit="8" fill="#E05858"/><path d="M585 1901 701.233 1901" stroke="#5F968E" stroke-width="13.75" stroke-miterlimit="8" fill="none" fill-rule="evenodd"/><path d="M0 0 88.4876 218.45" stroke="#5F968E" stroke-width="13.75" stroke-miterlimit="8" fill="none" fill-rule="evenodd" transform="matrix(1 0 0 -1 699 1904.45)"/><rect x="1292.5" y="1262.5" width="163" height="72.9999" stroke="#5F968E" stroke-width="4.58333" stroke-miterlimit="8" fill="#E05858"/><path d="M1205 1299 1289.9 1299" stroke="#5F968E" stroke-width="13.75" stroke-miterlimit="8" fill="none" fill-rule="evenodd"/><path d="M0 0 205.786 135.32" stroke="#5F968E" stroke-width="13.75" stroke-miterlimit="8" fill="none" fill-rule="evenodd" transform="matrix(1 0 0 -1 999 1434.32)"/><path d="M1268.38 869.257C1284.47 869.297 1300.73 873.804 1315.11 883.079 1334.49 896.621 1346.47 916.326 1350.22 937.489 1353.97 958.653 1349.49 981.276 1335.95 1000.66L1215.04 1173.68C1198.59 1197.21 1172.8 1209.06 1146.1 1208.95L1128.12 1234.67 1119.46 1226.8C1107.91 1217.27 1095.9 1208.28 1083.46 1199.88L1050.89 1180.09 1068.58 1154.78C1059.29 1129.74 1061.55 1101.45 1078 1077.92L1198.91 904.89C1215.24 881.532 1241.57 869.19 1268.38 869.257Z" stroke="#5F968E" stroke-width="27.5" stroke-linecap="round" stroke-miterlimit="8" fill="none" fill-rule="evenodd"/></g></svg>